<?xml version="1.0" encoding="UTF-8"?>
<!DOCTYPE svg PUBLIC "-//W3C//DTD SVG 1.1//EN" "http://www.w3.org/Graphics/SVG/1.1/DTD/svg11.dtd">
<svg xmlns="http://www.w3.org/2000/svg" version="1.1" width="512px" height="512px" style="shape-rendering:geometricPrecision; text-rendering:geometricPrecision; image-rendering:optimizeQuality; fill-rule:evenodd; clip-rule:evenodd" xmlns:xlink="http://www.w3.org/1999/xlink">
<g><path style="opacity:0.994" fill="#ffe4a0" d="M 146.5,-0.5 C 149.833,-0.5 153.167,-0.5 156.5,-0.5C 162.771,3.05579 164.938,8.38912 163,15.5C 118.656,99.6224 119.99,182.956 167,265.5C 189.498,300.834 218.665,329.167 254.5,350.5C 253.501,403.997 253.168,457.664 253.5,511.5C 251.833,511.5 250.167,511.5 248.5,511.5C 147.546,499.663 73.3791,448.996 26,359.5C 11.6888,329.243 2.85552,297.576 -0.5,264.5C -0.5,248.833 -0.5,233.167 -0.5,217.5C 11.6805,119.752 60.6805,47.0851 146.5,-0.5 Z"/></g>
<g><path style="opacity:0.99" fill="#ffc262" d="M 345.5,37.5 C 345.5,112.833 345.5,188.167 345.5,263.5C 341.975,263.654 339.141,262.321 337,259.5C 329,245.5 321,231.5 313,217.5C 311.5,216 310,214.5 308.5,213C 290.5,212.667 272.5,212.333 254.5,212C 249.07,210.901 246.07,207.568 245.5,202C 252.424,187.318 260.257,173.151 269,159.5C 273.667,153.5 273.667,147.5 269,141.5C 260.716,127.558 252.883,113.391 245.5,99C 246.046,93.88 248.713,90.5467 253.5,89C 272.257,88.9748 290.923,88.3081 309.5,87C 319.044,72.0826 328.21,56.9159 337,41.5C 339.141,38.6792 341.975,37.3459 345.5,37.5 Z"/></g>
<g><path style="opacity:1" fill="#ffb15c" d="M 345.5,37.5 C 347.099,37.2322 348.432,37.5655 349.5,38.5C 348.5,38.5 347.5,38.5 346.5,38.5C 346.5,113.167 346.5,187.833 346.5,262.5C 347.5,262.5 348.5,262.5 349.5,262.5C 348.432,263.434 347.099,263.768 345.5,263.5C 345.5,188.167 345.5,112.833 345.5,37.5 Z"/></g>
<g><path style="opacity:1" fill="#ffa85a" d="M 349.5,38.5 C 352.428,39.5914 354.594,41.5914 356,44.5C 363.871,59.081 372.371,73.2477 381.5,87C 400.077,88.3081 418.743,88.9748 437.5,89C 442.536,90.3957 444.869,93.729 444.5,99C 444.671,102.129 443.838,104.963 442,107.5C 433.229,121.214 425.396,135.381 418.5,150C 418.952,153.409 420.119,156.576 422,159.5C 429.333,172.167 436.667,184.833 444,197.5C 446.336,204.999 443.836,209.832 436.5,212C 418.5,212.333 400.5,212.667 382.5,213C 381,214.5 379.5,216 378,217.5C 370,231.5 362,245.5 354,259.5C 352.871,261.141 351.371,262.141 349.5,262.5C 348.5,262.5 347.5,262.5 346.5,262.5C 346.5,187.833 346.5,113.167 346.5,38.5C 347.5,38.5 348.5,38.5 349.5,38.5 Z"/></g>
<g><path style="opacity:1" fill="#ffd373" d="M 254.5,350.5 C 334.196,393.112 414.53,394.278 495.5,354C 502.611,352.062 507.944,354.229 511.5,360.5C 511.5,363.833 511.5,367.167 511.5,370.5C 462.771,453.391 390.438,500.391 294.5,511.5C 280.833,511.5 267.167,511.5 253.5,511.5C 253.168,457.664 253.501,403.997 254.5,350.5 Z"/></g>
</svg>
