<?xml version="1.0" encoding="UTF-8"?>
<!DOCTYPE svg PUBLIC "-//W3C//DTD SVG 1.1//EN" "http://www.w3.org/Graphics/SVG/1.1/DTD/svg11.dtd">
<svg xmlns="http://www.w3.org/2000/svg" version="1.1" width="512px" height="512px" style="shape-rendering:geometricPrecision; text-rendering:geometricPrecision; image-rendering:optimizeQuality; fill-rule:evenodd; clip-rule:evenodd" xmlns:xlink="http://www.w3.org/1999/xlink">
<g><path style="opacity:0.996" fill="#6e82af" d="M 232.5,-0.5 C 240.167,-0.5 247.833,-0.5 255.5,-0.5C 255.5,105.833 255.5,212.167 255.5,318.5C 210.401,280.942 189.235,232.609 192,173.5C 195.884,134.743 210.884,101.077 237,72.5C 239.002,66.3151 237.169,61.8151 231.5,59C 172.405,67.7925 126.239,96.9592 93,146.5C 57.6517,203.832 51.6517,264.165 75,327.5C 102.616,391.776 150.449,432.276 218.5,449C 230.748,451.155 243.081,452.322 255.5,452.5C 255.5,452.833 255.5,453.167 255.5,453.5C 255.5,472.833 255.5,492.167 255.5,511.5C 247.833,511.5 240.167,511.5 232.5,511.5C 142.856,500.612 75.3562,456.279 30,378.5C 13.3053,347.029 3.1386,313.696 -0.5,278.5C -0.5,263.167 -0.5,247.833 -0.5,232.5C 10.3875,142.857 54.7208,75.3573 132.5,30C 163.971,13.3053 197.304,3.1386 232.5,-0.5 Z"/></g>
<g><path style="opacity:1" fill="#5c6c9c" d="M 255.5,-0.5 C 263.167,-0.5 270.833,-0.5 278.5,-0.5C 368.144,10.3879 435.644,54.7213 481,132.5C 497.695,163.971 507.861,197.304 511.5,232.5C 511.5,247.833 511.5,263.167 511.5,278.5C 500.612,368.144 456.279,435.644 378.5,481C 347.029,497.695 313.696,507.861 278.5,511.5C 270.833,511.5 263.167,511.5 255.5,511.5C 255.5,492.167 255.5,472.833 255.5,453.5C 329.36,452.163 386.86,421.163 428,360.5C 431.563,352.061 428.896,346.727 420,344.5C 360.654,364.579 305.82,356.245 255.5,319.5C 255.5,319.167 255.5,318.833 255.5,318.5C 255.5,212.167 255.5,105.833 255.5,-0.5 Z"/></g>
<g><path style="opacity:1" fill="#fef4f4" d="M 255.5,318.5 C 255.5,318.833 255.5,319.167 255.5,319.5C 255.5,363.833 255.5,408.167 255.5,452.5C 243.081,452.322 230.748,451.155 218.5,449C 150.449,432.276 102.616,391.776 75,327.5C 51.6517,264.165 57.6517,203.832 93,146.5C 126.239,96.9592 172.405,67.7925 231.5,59C 237.169,61.8151 239.002,66.3151 237,72.5C 210.884,101.077 195.884,134.743 192,173.5C 189.235,232.609 210.401,280.942 255.5,318.5 Z"/></g>
<g><path style="opacity:1" fill="#a2ddfa" d="M 350.5,123.5 C 354.273,122.822 357.106,124.156 359,127.5C 363.197,139.092 367.197,150.759 371,162.5C 374.5,171.333 380.667,177.5 389.5,181C 401.252,184.806 412.919,188.806 424.5,193C 428.5,196.667 428.5,200.333 424.5,204C 409.407,208.695 394.74,214.362 380.5,221C 375.627,225.249 372.127,230.416 370,236.5C 366.531,247.241 362.864,257.908 359,268.5C 356.168,274.201 352.502,274.867 348,270.5C 343.256,255.935 337.923,241.602 332,227.5C 328.358,222.854 323.858,219.354 318.5,217C 306.167,212.667 293.833,208.333 281.5,204C 277.5,200.333 277.5,196.667 281.5,193C 296.065,188.256 310.398,182.923 324.5,177C 329.947,172.601 333.78,167.101 336,160.5C 339.469,149.759 343.136,139.092 347,128.5C 347.997,126.677 349.164,125.01 350.5,123.5 Z"/></g>
<g><path style="opacity:1" fill="#eaeaef" d="M 255.5,319.5 C 305.82,356.245 360.654,364.579 420,344.5C 428.896,346.727 431.563,352.061 428,360.5C 386.86,421.163 329.36,452.163 255.5,453.5C 255.5,453.167 255.5,452.833 255.5,452.5C 255.5,408.167 255.5,363.833 255.5,319.5 Z"/></g>
</svg>
