<svg xmlns="http://www.w3.org/2000/svg" version="1.1" xmlns:xlink="http://www.w3.org/1999/xlink" xmlns:svgjs="http://svgjs.dev/svgjs" width="1000" height="1000" viewBox="0 0 1000 1000"><rect width="1000" height="1000" fill="#ffffff"></rect><g transform="matrix(0.7,0,0,0.7,149.84897959183667,150.19913061224486)"><svg viewBox="0 0 343 343" data-background-color="#ffffff" preserveAspectRatio="xMidYMid meet" height="999" width="1000" xmlns="http://www.w3.org/2000/svg" xmlns:xlink="http://www.w3.org/1999/xlink"><g id="tight-bounds" transform="matrix(1,0,0,1,0.0740000000000407,0.07400000000001228)"><svg viewBox="0 0 342.85155851775386 342.85155851775386" height="342.85155851775386" width="342.85155851775386"><g><svg></svg></g><g><svg viewBox="0 0 342.85155851775386 342.85155851775386" height="342.85155851775386" width="342.85155851775386"><g><path d="M0 171.426c0-94.676 76.75-171.426 171.426-171.426 94.676 0 171.426 76.75 171.426 171.426 0 94.676-76.75 171.426-171.426 171.426-94.676 0-171.426-76.75-171.426-171.426zM171.426 339.502c92.826 0 168.076-75.25 168.076-168.076 0-92.826-75.25-168.076-168.076-168.076-92.826 0-168.076 75.25-168.076 168.076 0 92.826 75.25 168.076 168.076 168.076z" data-fill-palette-color="tertiary" fill="#8dbdff" stroke="transparent"></path><ellipse rx="164.56874808852186" ry="164.56874808852186" cx="171.42577925887693" cy="171.42577925887693" fill="#8dbdff" stroke="transparent" stroke-width="0" fill-opacity="1" data-fill-palette-color="tertiary"></ellipse></g><g transform="matrix(1,0,0,1,64.84655864529837,141.0888406178023)"><svg viewBox="0 0 213.1584412271571 60.67387728214924" height="60.67387728214924" width="213.1584412271571"><g><svg viewBox="0 0 213.1584412271571 60.67387728214924" height="60.67387728214924" width="213.1584412271571"><g><svg viewBox="0 0 213.1584412271571 60.67387728214924" height="60.67387728214924" width="213.1584412271571"><g><svg viewBox="0 0 213.1584412271571 60.67387728214924" height="60.67387728214924" width="213.1584412271571"><g id="textblocktransform"><svg viewBox="0 0 213.1584412271571 60.67387728214924" height="60.67387728214924" width="213.1584412271571" id="textblock"><g><svg viewBox="0 0 213.1584412271571 37.14266181228524" height="37.14266181228524" width="213.1584412271571"><g transform="matrix(1,0,0,1,0,0)"><svg width="213.1584412271571" viewBox="3.299999952316284 -37.5 284.6200256347656 49.599998474121094" height="37.14266181228524" data-palette-color="#ffffff"><path d="M3.3 0L3.3-35 8.45-35 22.3-9.4 22.3-35 26.85-35 26.85 0 22.6 0 7.85-27.05 7.85 0 3.3 0ZM32.65-30.05L32.65-35 37-35 37-30.05 32.65-30.05ZM32.65 0L32.65-24.5 37-24.5 37 0 32.65 0ZM43 0L43-37.5 47.35-37.5 47.35-13.4 54.7-24.5 59.9-24.5 51.8-13.2 60.05 0 54.8 0 47.35-12.5 47.35 0 43 0ZM63.84 0L63.84-35 82.54-35 82.54-30.85 68.39-30.85 68.39-20.4 79.59-20.4 79.59-16.2 68.39-16.2 68.39-4.15 82.94-4.15 82.94 0 63.84 0ZM97.44-25Q101.24-25 103.27-22.03 105.29-19.05 105.29-14L105.29-14 105.29 0 100.94 0 100.94-13.45Q100.94-17.35 99.82-19.23 98.69-21.1 96.44-21.1L96.44-21.1Q94.79-21.1 93.39-20.18 91.99-19.25 91.04-17.6L91.04-17.6 91.04 0 86.69 0 86.69-24.5 90.39-24.5 90.69-21.45Q91.74-23.1 93.52-24.05 95.29-25 97.44-25L97.44-25ZM120.14 0.5Q114.54 0.5 111.64-3.03 108.74-6.55 108.74-12.1L108.74-12.1Q108.74-17.85 111.64-21.43 114.54-25 120.24-25L120.24-25Q123.29-25 125.69-23.75L125.69-23.75 124.99-19.9Q122.74-21.1 120.29-21.1L120.29-21.1Q116.94-21.1 115.06-18.78 113.19-16.45 113.19-12.3L113.19-12.3Q113.19-8.15 115.11-5.75 117.04-3.35 120.44-3.35L120.44-3.35Q123.04-3.35 125.04-4.55L125.04-4.55 125.64-0.65Q124.64-0.15 123.14 0.18 121.64 0.5 120.14 0.5L120.14 0.5ZM129.64 0L129.64-24.5 133.19-24.5 133.74-20.4Q135.39-22.8 136.86-23.9 138.34-25 139.99-25L139.99-25Q140.64-25 141.14-24.85L141.14-24.85 140.69-19.9Q140.04-20.05 139.19-20.05L139.19-20.05Q137.54-20.05 136.09-19.23 134.64-18.4 133.99-17.3L133.99-17.3 133.99 0 129.64 0ZM145.78 12.1L150.68-1.1 141.73-24.5 146.38-24.5 152.93-6.25 158.93-24.5 163.58-24.5 150.43 12.1 145.78 12.1ZM177.23-25Q180.18-25 182.41-23.33 184.63-21.65 185.81-18.75 186.98-15.85 186.98-12.25L186.98-12.25Q186.98-6.65 184.43-3.08 181.88 0.5 177.23 0.5L177.23 0.5Q175.33 0.5 173.71-0.18 172.08-0.85 170.93-2.15L170.93-2.15 170.93 12.1 166.58 12.1 166.58-24.5 169.93-24.5 170.33-21.55Q172.98-25 177.23-25L177.23-25ZM176.43-3.35Q179.28-3.35 180.91-5.7 182.53-8.05 182.53-12.25L182.53-12.25Q182.53-16.4 180.91-18.75 179.28-21.1 176.43-21.1L176.43-21.1Q174.93-21.1 173.53-20.1 172.13-19.1 171.26-17.1 170.38-15.1 170.38-12.25L170.38-12.25Q170.38-9.3 171.26-7.3 172.13-5.3 173.51-4.33 174.88-3.35 176.43-3.35L176.43-3.35ZM197.93 0.5Q195.08 0.5 193.7-1.2 192.33-2.9 192.33-5.35L192.33-5.35 192.33-21.05 188.93-21.05 189.33-24.5 192.33-24.5 192.33-30.55 196.68-31 196.68-24.5 201.98-24.5 201.98-21.05 196.68-21.05 196.68-7.1Q196.68-4.85 197.5-3.95 198.33-3.05 200.38-3.05L200.38-3.05 201.93-3.05 201.53 0.5 197.93 0.5ZM220.18 0.7Q215.33 0.7 211.73-1.53 208.13-3.75 206.15-7.88 204.18-12 204.18-17.5L204.18-17.5Q204.18-22.95 206.2-27.08 208.23-31.2 211.83-33.45 215.43-35.7 219.98-35.7L219.98-35.7Q223.98-35.7 227.58-34.2L227.58-34.2 227.08-29.95Q223.88-31.55 220.88-31.55L220.88-31.55Q217.18-31.55 214.55-29.7 211.93-27.85 210.58-24.65 209.23-21.45 209.23-17.5L209.23-17.5Q209.23-13.55 210.58-10.35 211.93-7.15 214.55-5.3 217.18-3.45 220.93-3.45L220.93-3.45Q224.18-3.45 227.08-4.95L227.08-4.95 227.58-0.7Q224.38 0.7 220.18 0.7L220.18 0.7ZM242.47-25Q246.27-25 248.3-22.03 250.32-19.05 250.32-14L250.32-14 250.32 0 245.97 0 245.97-13.45Q245.97-17.35 244.87-19.18 243.77-21 241.47-21L241.47-21Q239.77-21 238.4-20.08 237.02-19.15 236.07-17.5L236.07-17.5 236.07 0 231.72 0 231.72-37.5 236.07-37.5 236.07-21.9Q237.12-23.35 238.82-24.18 240.52-25 242.47-25L242.47-25ZM260.22 0.5Q257.42 0.5 255.62-1.5 253.82-3.5 253.82-6.6L253.82-6.6Q253.82-11.2 257.67-13.23 261.52-15.25 266.27-15.35L266.27-15.35Q266.27-18.55 265.32-19.8 264.37-21.05 262.12-21.05L262.12-21.05Q259.22-21.05 256.22-18.8L256.22-18.8 255.67-22.45Q258.82-25 262.97-25L262.97-25Q266.92-25 268.82-22.73 270.72-20.45 270.72-15.4L270.72-15.4 270.72-8.25Q270.72-5.4 271.12-4.23 271.52-3.05 272.87-3.05L272.87-3.05 273.42-3.05 272.87 0.5 271.92 0.5Q269.62 0.5 268.52-0.35 267.42-1.2 266.72-3.1L266.72-3.1Q265.57-1.45 263.87-0.48 262.17 0.5 260.22 0.5L260.22 0.5ZM261.57-3.05Q262.77-3.05 264.07-3.98 265.37-4.9 266.27-6.4L266.27-6.4 266.27-12.25Q262.42-12.05 260.42-10.78 258.42-9.5 258.42-6.85L258.42-6.85Q258.42-3.05 261.57-3.05L261.57-3.05ZM283.87 0.5Q281.02 0.5 279.64-1.2 278.27-2.9 278.27-5.35L278.27-5.35 278.27-21.05 274.87-21.05 275.27-24.5 278.27-24.5 278.27-30.55 282.62-31 282.62-24.5 287.92-24.5 287.92-21.05 282.62-21.05 282.62-7.1Q282.62-4.85 283.44-3.95 284.27-3.05 286.32-3.05L286.32-3.05 287.87-3.05 287.47 0.5 283.87 0.5Z" opacity="1" transform="matrix(1,0,0,1,0,0)" fill="#ffffff" class="undefined-text-0" data-fill-palette-color="quaternary" id="text-0"></path></svg></g></svg></g><g transform="matrix(1,0,0,1,0,45.91115284228229)"><svg viewBox="0 0 213.1584412271571 14.762724439866949" height="14.762724439866949" width="213.1584412271571"><g transform="matrix(1,0,0,1,0,0)"><svg width="213.1584412271571" viewBox="3.2200000286102295 -37.54999923706055 707.4400024414062 49" height="14.762724439866949" data-palette-color="#ffffff"><path d="M35.03-6.35L35.03 0 12.13 0Q11.25 0 10.24-0.21 9.23-0.42 8.24-0.85 7.25-1.29 6.35-1.99 5.44-2.69 4.75-3.67 4.05-4.66 3.64-5.97 3.22-7.28 3.22-8.91L3.22-8.91 3.22-26.1Q3.22-26.98 3.43-27.99 3.64-29 4.08-29.99 4.52-30.98 5.22-31.88 5.93-32.79 6.92-33.48 7.91-34.18 9.2-34.59 10.5-35.01 12.13-35.01L12.13-35.01 35.03-35.01 35.03-28.66 12.13-28.66Q10.89-28.66 10.23-28 9.57-27.34 9.57-26.05L9.57-26.05 9.57-8.91Q9.57-7.69 10.24-7.02 10.91-6.35 12.13-6.35L12.13-6.35 35.03-6.35ZM69.68-17.5L69.68 0 63.33 0 63.33-17.5Q63.33-18.75 62.69-19.4 62.06-20.04 60.79-20.04L60.79-20.04 49.34-20.04 49.34-26.39 60.79-26.39Q61.69-26.39 62.69-26.18 63.69-25.98 64.68-25.54 65.67-25.1 66.57-24.4 67.48-23.71 68.16-22.72 68.85-21.73 69.26-20.43 69.68-19.14 69.68-17.5L69.68-17.5ZM46.77-37.55L46.77 0 40.43 0 40.43-37.55 46.77-37.55ZM102.73-17.65L102.73-8.74Q102.73-7.42 102.27-5.9 101.8-4.37 100.76-3.06 99.73-1.76 98.05-0.88 96.38 0 93.99 0L93.99 0 82.54 0Q81.22 0 79.69-0.46 78.17-0.93 76.86-1.97 75.56-3 74.68-4.68 73.8-6.35 73.8-8.74L73.8-8.74Q73.8-10.06 74.26-11.6 74.73-13.13 75.76-14.44 76.8-15.75 78.47-16.63 80.15-17.5 82.54-17.5L82.54-17.5 93.99-17.5 93.99-11.45 82.54-11.45Q81.25-11.45 80.54-10.66 79.83-9.86 79.83-8.69L79.83-8.69Q79.83-7.45 80.65-6.75 81.46-6.05 82.59-6.05L82.59-6.05 93.99-6.05Q95.28-6.05 95.99-6.84 96.7-7.62 96.7-8.79L96.7-8.79 96.7-17.65Q96.7-18.9 95.93-19.63 95.16-20.36 93.99-20.36L93.99-20.36 80.05-20.36 80.05-26.39 93.99-26.39Q95.31-26.39 96.83-25.93 98.36-25.46 99.67-24.43 100.97-23.39 101.85-21.72 102.73-20.04 102.73-17.65L102.73-17.65ZM132.05-26.39L132.05-20.04 120.96-20.04 120.96 0 114.54 0 114.54-20.04 106.29-20.04 106.29-26.39 114.54-26.39 114.54-35.01 120.96-35.01 120.96-26.39 132.05-26.39ZM180.48-17.65L180.48-17.65Q180.48-16.33 180.02-14.81 179.55-13.28 178.52-11.98 177.48-10.67 175.81-9.79 174.13-8.91 171.74-8.91L171.74-8.91 160.29-8.91 160.29-14.94 171.74-14.94Q173.03-14.94 173.74-15.73 174.45-16.53 174.45-17.7L174.45-17.7Q174.45-18.95 173.66-19.65 172.86-20.36 171.74-20.36L171.74-20.36 160.29-20.36Q159-20.36 158.29-19.57 157.58-18.77 157.58-17.6L157.58-17.6 157.58-8.74Q157.58-7.47 158.37-6.76 159.17-6.05 160.34-6.05L160.34-6.05 171.74-6.05 171.74 0 160.29 0Q158.97 0 157.45-0.46 155.92-0.93 154.61-1.97 153.31-3 152.43-4.68 151.55-6.35 151.55-8.74L151.55-8.74 151.55-17.65Q151.55-18.97 152.01-20.5 152.48-22.02 153.52-23.33 154.55-24.63 156.23-25.51 157.9-26.39 160.29-26.39L160.29-26.39 171.74-26.39Q173.06-26.39 174.58-25.93 176.11-25.46 177.42-24.43 178.72-23.39 179.6-21.72 180.48-20.04 180.48-17.65ZM214-14.65L214 0 207.65 0 207.65-14.65Q207.65-15.89 207.22-16.88 206.8-17.87 206.06-18.58 205.33-19.29 204.34-19.67 203.35-20.04 202.21-20.04L202.21-20.04 191.1-20.04 191.1 0 184.75 0 184.75-23.24Q184.75-23.9 184.99-24.48 185.24-25.05 185.68-25.48 186.12-25.9 186.7-26.15 187.29-26.39 187.95-26.39L187.95-26.39 202.26-26.39Q203.45-26.39 204.78-26.12 206.11-25.85 207.42-25.26 208.73-24.66 209.91-23.74 211.09-22.83 212.01-21.52 212.92-20.21 213.46-18.51 214-16.8 214-14.65L214-14.65ZM245.12-6.35L245.12 0 227.91 0Q226.59 0 225.03-0.46 223.47-0.93 222.14-1.99 220.81-3.05 219.92-4.75 219.03-6.45 219.03-8.91L219.03-8.91 219.03-17.5Q219.03-18.41 219.23-19.41 219.44-20.41 219.88-21.4 220.32-22.39 221.02-23.29 221.71-24.19 222.7-24.88 223.69-25.56 224.98-25.98 226.28-26.39 227.91-26.39L227.91-26.39 245.12-26.39 245.12-20.04 227.91-20.04Q226.67-20.04 226.02-19.41 225.37-18.77 225.37-17.46L225.37-17.46 225.37-8.91Q225.37-7.67 226.03-7.01 226.69-6.35 227.96-6.35L227.96-6.35 245.12-6.35ZM273.47-26.39L273.47-20.04 259.18-20.04Q257.89-20.04 257.23-19.4 256.57-18.75 256.57-17.5L256.57-17.5 256.57 0 250.22 0 250.22-17.5Q250.22-19.14 250.64-20.43 251.05-21.73 251.75-22.72 252.45-23.71 253.35-24.4 254.25-25.1 255.24-25.54 256.23-25.98 257.24-26.18 258.26-26.39 259.14-26.39L259.14-26.39 273.47-26.39ZM306.74-26.39L306.74 2.54Q306.74 4.17 306.33 5.48 305.91 6.79 305.23 7.78 304.54 8.76 303.64 9.46 302.74 10.16 301.75 10.6 300.76 11.04 299.76 11.24 298.76 11.45 297.85 11.45L297.85 11.45 286.4 11.45 286.4 5.1 297.85 5.1Q299.12 5.1 299.76 4.44 300.39 3.78 300.39 2.54L300.39 2.54 300.39-26.39 306.74-26.39ZM297.85-6.35L297.85 0 286.4 0Q285.04 0 283.49-0.46 281.94-0.93 280.59-1.99 279.25-3.05 278.37-4.75 277.49-6.45 277.49-8.91L277.49-8.91 277.49-26.39 283.84-26.39 283.84-8.91Q283.84-7.67 284.5-7.01 285.16-6.35 286.45-6.35L286.45-6.35 297.85-6.35ZM341.89-17.5L341.89-8.91Q341.89-7.28 341.48-5.97 341.06-4.66 340.38-3.67 339.7-2.69 338.79-1.99 337.89-1.29 336.9-0.85 335.91-0.42 334.91-0.21 333.91 0 333.01 0L333.01 0 321.56 0 321.56-6.35 333.01-6.35Q334.28-6.35 334.91-7.01 335.55-7.67 335.55-8.91L335.55-8.91 335.55-17.46Q335.55-18.77 334.9-19.41 334.25-20.04 333.01-20.04L333.01-20.04 321.61-20.04Q320.31-20.04 319.65-19.4 318.99-18.75 318.99-17.5L318.99-17.5 318.99 8.25 312.65 8.25 312.65-17.5Q312.65-19.14 313.06-20.43 313.48-21.73 314.17-22.72 314.87-23.71 315.77-24.4 316.67-25.1 317.66-25.54 318.65-25.98 319.66-26.18 320.68-26.39 321.56-26.39L321.56-26.39 333.01-26.39Q334.64-26.39 335.94-25.98 337.23-25.56 338.22-24.88 339.21-24.19 339.9-23.29 340.6-22.39 341.04-21.4 341.48-20.41 341.69-19.41 341.89-18.41 341.89-17.5L341.89-17.5ZM371.19-26.39L371.19-20.04 360.1-20.04 360.1 0 353.68 0 353.68-20.04 345.43-20.04 345.43-26.39 353.68-26.39 353.68-35.01 360.1-35.01 360.1-26.39 371.19-26.39ZM403.66-17.65L403.66-17.65Q403.66-16.33 403.19-14.81 402.73-13.28 401.69-11.98 400.65-10.67 398.98-9.79 397.31-8.91 394.92-8.91L394.92-8.91 383.47-8.91 383.47-14.94 394.92-14.94Q396.21-14.94 396.92-15.73 397.63-16.53 397.63-17.7L397.63-17.7Q397.63-18.95 396.83-19.65 396.04-20.36 394.92-20.36L394.92-20.36 383.47-20.36Q382.17-20.36 381.46-19.57 380.76-18.77 380.76-17.6L380.76-17.6 380.76-8.74Q380.76-7.47 381.55-6.76 382.34-6.05 383.51-6.05L383.51-6.05 394.92-6.05 394.92 0 383.47 0Q382.15 0 380.62-0.46 379.1-0.93 377.79-1.97 376.48-3 375.6-4.68 374.73-6.35 374.73-8.74L374.73-8.74 374.73-17.65Q374.73-18.97 375.19-20.5 375.65-22.02 376.69-23.33 377.73-24.63 379.4-25.51 381.07-26.39 383.47-26.39L383.47-26.39 394.92-26.39Q396.23-26.39 397.76-25.93 399.29-25.46 400.59-24.43 401.9-23.39 402.78-21.72 403.66-20.04 403.66-17.65ZM436.88-37.55L436.88-8.91Q436.88-7.28 436.47-5.97 436.05-4.66 435.37-3.67 434.68-2.69 433.78-1.99 432.88-1.29 431.89-0.85 430.9-0.42 429.89-0.21 428.87 0 427.97 0L427.97 0 416.52 0Q414.88 0 413.59-0.42 412.3-0.83 411.31-1.53 410.32-2.22 409.62-3.13 408.93-4.03 408.49-5.02 408.05-6.01 407.84-7.02 407.63-8.03 407.63-8.91L407.63-8.91 407.63-17.5Q407.63-19.95 408.52-21.64 409.42-23.34 410.75-24.4 412.08-25.46 413.64-25.93 415.2-26.39 416.52-26.39L416.52-26.39 427.97-26.39 427.97-20.04 416.57-20.04Q415.3-20.04 414.64-19.4 413.98-18.75 413.98-17.5L413.98-17.5 413.98-8.96Q413.98-7.67 414.63-7.01 415.28-6.35 416.52-6.35L416.52-6.35 427.97-6.35Q429.26-6.35 429.9-7.01 430.53-7.67 430.53-8.91L430.53-8.91 430.53-37.55 436.88-37.55ZM495.54-26.39L502.65-26.39Q501.13-23 499.38-19.71 497.62-16.43 495.7-13.5 493.79-10.57 491.78-8.09 489.78-5.62 487.82-3.82 485.85-2.03 483.98-1.01 482.12 0 480.46 0L480.46 0Q479.77 0 479.19-0.24 478.6-0.49 478.16-0.92 477.72-1.34 477.48-1.93 477.23-2.51 477.23-3.2L477.23-3.2 477.23-15.04 464.64-0.95Q464.15-0.46 463.57-0.23 463 0 462.39 0L462.39 0Q461.73 0 461.16-0.24 460.58-0.49 460.14-0.92 459.7-1.34 459.45-1.93 459.19-2.51 459.19-3.2L459.19-3.2 459.19-26.39 465.54-26.39 465.54-11.35 478.19-25.49Q478.87-26.17 479.81-26.35 480.75-26.54 481.65-26.15L481.65-26.15Q482.56-25.78 483.08-24.99 483.61-24.19 483.61-23.24L483.61-23.24 483.61-8.15Q485.66-10.13 487.32-12.33 488.98-14.53 490.4-16.86 491.83-19.19 493.09-21.59 494.35-24 495.54-26.39L495.54-26.39ZM511.29-37.55L511.29-31.81 504.94-31.81 504.94-37.55 511.29-37.55ZM511.29-26.39L511.29 0 504.94 0 504.94-26.39 511.29-26.39ZM541.36-26.39L541.36-20.04 530.28-20.04 530.28 0 523.86 0 523.86-20.04 515.61-20.04 515.61-26.39 523.86-26.39 523.86-35.01 530.28-35.01 530.28-26.39 541.36-26.39ZM574.88-17.5L574.88 0 568.53 0 568.53-17.5Q568.53-18.75 567.9-19.4 567.26-20.04 566-20.04L566-20.04 554.54-20.04 554.54-26.39 566-26.39Q566.9-26.39 567.9-26.18 568.9-25.98 569.89-25.54 570.88-25.1 571.78-24.4 572.68-23.71 573.37-22.72 574.05-21.73 574.47-20.43 574.88-19.14 574.88-17.5L574.88-17.5ZM551.98-37.55L551.98 0 545.63 0 545.63-37.55 551.98-37.55ZM632.01-31.81L632.01 0 625.66 0 625.66-8.59 603.34-8.59 603.34 0 597 0 597-17.5Q597-21.34 598.31-24.56 599.63-27.78 601.98-30.1 604.32-32.42 607.52-33.72 610.72-35.01 614.5-35.01L614.5-35.01 628.81-35.01Q629.47-35.01 630.05-34.77 630.64-34.52 631.08-34.08 631.52-33.64 631.76-33.06 632.01-32.47 632.01-31.81L632.01-31.81ZM603.34-17.5L603.34-14.94 625.66-14.94 625.66-28.66 614.5-28.66Q614.21-28.66 613.27-28.58 612.33-28.49 611.1-28.15 609.86-27.81 608.49-27.1 607.13-26.39 605.98-25.15 604.83-23.9 604.09-22.03 603.34-20.17 603.34-17.5L603.34-17.5ZM668.16-20.7L668.16-14.31 648.12-14.31 648.12-20.7 668.16-20.7ZM671.02-6.35L671.02 0 648.12 0Q646.8 0 645.24-0.46 643.67-0.93 642.34-1.99 641.01-3.05 640.12-4.75 639.23-6.45 639.23-8.91L639.23-8.91 639.23-31.81Q639.23-32.47 639.47-33.06 639.72-33.64 640.15-34.08 640.57-34.52 641.16-34.77 641.74-35.01 642.43-35.01L642.43-35.01 671.02-35.01 671.02-28.66 645.58-28.66 645.58-8.91Q645.58-7.67 646.24-7.01 646.9-6.35 648.17-6.35L648.17-6.35 671.02-6.35ZM710.66-10.3L710.66-10.3Q710.66-8.42 710.19-6.92 709.71-5.42 708.93-4.27 708.15-3.13 707.1-2.32 706.05-1.51 704.93-1 703.8-0.49 702.64-0.24 701.48 0 700.46 0L700.46 0 675.97 0 675.97-6.35 700.46-6.35Q702.29-6.35 703.3-7.42 704.32-8.5 704.32-10.3L704.32-10.3Q704.32-11.18 704.05-11.91 703.78-12.65 703.28-13.18 702.78-13.72 702.06-14.01 701.34-14.31 700.46-14.31L700.46-14.31 685.86-14.31Q684.32-14.31 682.54-14.86 680.76-15.41 679.23-16.63 677.7-17.85 676.69-19.82 675.68-21.8 675.68-24.66L675.68-24.66Q675.68-27.51 676.69-29.48 677.7-31.45 679.23-32.68 680.76-33.91 682.54-34.46 684.32-35.01 685.86-35.01L685.86-35.01 707.46-35.01 707.46-28.66 685.86-28.66Q684.05-28.66 683.04-27.56 682.03-26.46 682.03-24.66L682.03-24.66Q682.03-22.83 683.04-21.77 684.05-20.7 685.86-20.7L685.86-20.7 700.46-20.7 700.51-20.7Q701.53-20.68 702.68-20.42 703.83-20.17 704.96-19.63 706.1-19.09 707.12-18.27 708.15-17.46 708.94-16.31 709.74-15.16 710.2-13.67 710.66-12.18 710.66-10.3Z" opacity="1" transform="matrix(1,0,0,1,0,0)" fill="#ffffff" class="undefined-text-1" data-fill-palette-color="quaternary" id="text-1"></path></svg></g></svg></g></svg></g></svg></g><g></g></svg></g></svg></g></svg></g></svg></g><defs></defs></svg><rect width="342.85155851775386" height="342.85155851775386" fill="none" stroke="none" visibility="hidden"></rect></g></svg></g></svg>