<?xml version="1.0" encoding="UTF-8"?>
<!DOCTYPE svg PUBLIC "-//W3C//DTD SVG 1.1//EN" "http://www.w3.org/Graphics/SVG/1.1/DTD/svg11.dtd">
<svg xmlns="http://www.w3.org/2000/svg" version="1.1" width="200px" height="200px" style="shape-rendering:geometricPrecision; text-rendering:geometricPrecision; image-rendering:optimizeQuality; fill-rule:evenodd; clip-rule:evenodd" xmlns:xlink="http://www.w3.org/1999/xlink">
<g><path style="opacity:1" fill="#dff2f0" d="M -0.5,-0.5 C 66.1667,-0.5 132.833,-0.5 199.5,-0.5C 199.5,66.1667 199.5,132.833 199.5,199.5C 132.833,199.5 66.1667,199.5 -0.5,199.5C -0.5,132.833 -0.5,66.1667 -0.5,-0.5 Z"/></g>
<g><path style="opacity:1" fill="#14ac96" d="M 109.5,58.5 C 94.8207,60.0114 85.9874,68.0114 83,82.5C 82.8272,88.3482 82.3272,94.0149 81.5,99.5C 79.6315,95.4334 77.4648,91.4334 75,87.5C 72.399,78.5029 73.0657,69.8363 77,61.5C 84.3451,54.8204 91.6784,48.1538 99,41.5C 103.96,46.2871 107.46,51.9537 109.5,58.5 Z"/></g>
<g><path style="opacity:1" fill="#a3e787" d="M 124.5,55.5 C 121.06,57.3988 119.06,60.3988 118.5,64.5C 113.889,71.1145 108.889,77.4478 103.5,83.5C 96.7677,89.5728 90.1011,95.5728 83.5,101.5C 82.1667,101.5 81.5,100.833 81.5,99.5C 82.3272,94.0149 82.8272,88.3482 83,82.5C 85.9874,68.0114 94.8207,60.0114 109.5,58.5C 113.854,56.7437 118.354,55.4103 123,54.5C 123.765,54.5699 124.265,54.9033 124.5,55.5 Z"/></g>
<g><path style="opacity:1" fill="#19cd77" d="M 124.5,55.5 C 129.957,87.7155 116.29,103.049 83.5,101.5C 90.1011,95.5728 96.7677,89.5728 103.5,83.5C 108.889,77.4478 113.889,71.1145 118.5,64.5C 119.06,60.3988 121.06,57.3988 124.5,55.5 Z"/></g>
<g><path style="opacity:1" fill="#1daf99" d="M 18.5,127.5 C 18.44,126.957 18.1067,126.624 17.5,126.5C 16.5078,130.783 16.1744,135.116 16.5,139.5C 15.5,139.5 14.5,139.5 13.5,139.5C 13.5,132.833 13.5,126.167 13.5,119.5C 16.0124,119.423 18.0124,120.423 19.5,122.5C 21.8635,125.699 24.0302,129.032 26,132.5C 26.499,128.179 26.6657,123.846 26.5,119.5C 27.8333,119.5 29.1667,119.5 30.5,119.5C 30.5,126.167 30.5,132.833 30.5,139.5C 28.712,139.785 27.0453,139.452 25.5,138.5C 22.9062,134.974 20.5729,131.308 18.5,127.5 Z"/></g>
<g><path style="opacity:1" fill="#41b7a7" d="M 33.5,119.5 C 35.1667,119.5 36.8333,119.5 38.5,119.5C 38.5,120.833 38.5,122.167 38.5,123.5C 35.0504,124.244 33.3838,122.91 33.5,119.5 Z"/></g>
<g><path style="opacity:1" fill="#9edbd5" d="M 148.5,125.5 C 148.189,126.478 147.522,127.145 146.5,127.5C 145.52,124.914 145.187,122.247 145.5,119.5C 144.5,119.5 143.5,119.5 142.5,119.5C 142.5,126.167 142.5,132.833 142.5,139.5C 141.508,132.352 141.175,125.019 141.5,117.5C 146.158,116.906 147.825,118.572 146.5,122.5C 146.64,124.03 147.307,125.03 148.5,125.5 Z"/></g>
<g><path style="opacity:1" fill="#28b09c" d="M 58.5,119.5 C 62.8333,119.5 67.1667,119.5 71.5,119.5C 71.5,120.5 71.5,121.5 71.5,122.5C 68.8127,122.336 66.146,122.503 63.5,123C 62.6198,124.356 62.2865,125.856 62.5,127.5C 65.1667,127.5 67.8333,127.5 70.5,127.5C 70.5,128.833 70.5,130.167 70.5,131.5C 67.8333,131.5 65.1667,131.5 62.5,131.5C 62.5,133.167 62.5,134.833 62.5,136.5C 65.5,136.5 68.5,136.5 71.5,136.5C 71.5,137.5 71.5,138.5 71.5,139.5C 67.1667,139.5 62.8333,139.5 58.5,139.5C 58.5,132.833 58.5,126.167 58.5,119.5 Z"/></g>
<g><path style="opacity:1" fill="#0bab95" d="M 37.5,125.5 C 37.5,130.167 37.5,134.833 37.5,139.5C 36.5,139.5 35.5,139.5 34.5,139.5C 34.5,134.833 34.5,130.167 34.5,125.5C 35.5,125.5 36.5,125.5 37.5,125.5 Z"/></g>
<g><path style="opacity:1" fill="#1fae99" d="M 177.5,121.5 C 178.833,121.5 180.167,121.5 181.5,121.5C 181.5,122.833 181.5,124.167 181.5,125.5C 182.833,125.5 184.167,125.5 185.5,125.5C 185.5,126.5 185.5,127.5 185.5,128.5C 184.167,128.5 182.833,128.5 181.5,128.5C 181.5,131.167 181.5,133.833 181.5,136.5C 182.833,136.5 184.167,136.5 185.5,136.5C 185.5,137.5 185.5,138.5 185.5,139.5C 182.635,139.945 180.135,139.278 178,137.5C 177.9,133.798 177.067,130.298 175.5,127C 176.885,125.403 177.551,123.57 177.5,121.5 Z"/></g>
<g><path style="opacity:1" fill="#76d1c5" d="M 37.5,125.5 C 38.4872,130.305 38.8205,135.305 38.5,140.5C 36.901,140.768 35.5676,140.434 34.5,139.5C 35.5,139.5 36.5,139.5 37.5,139.5C 37.5,134.833 37.5,130.167 37.5,125.5 Z"/></g>
<g><path style="opacity:1" fill="#26b09b" d="M 148.5,125.5 C 151.365,125.055 153.865,125.722 156,127.5C 156.499,131.821 156.666,136.154 156.5,140.5C 155.167,140.5 153.833,140.5 152.5,140.5C 152.665,136.818 152.499,133.152 152,129.5C 150.333,128.167 148.667,128.167 147,129.5C 146.502,132.817 146.335,136.15 146.5,139.5C 145.167,139.5 143.833,139.5 142.5,139.5C 142.5,132.833 142.5,126.167 142.5,119.5C 143.5,119.5 144.5,119.5 145.5,119.5C 145.187,122.247 145.52,124.914 146.5,127.5C 147.522,127.145 148.189,126.478 148.5,125.5 Z"/></g>
<g><path style="opacity:1" fill="#2eb19d" d="M 161.5,125.5 C 172.171,124.181 176.171,128.848 173.5,139.5C 170.468,139.505 167.468,139.838 164.5,140.5C 160.011,140.167 158.511,137.833 160,133.5C 162.481,131.686 165.315,131.02 168.5,131.5C 168.5,130.5 168.5,129.5 168.5,128.5C 165.91,128.396 163.577,129.063 161.5,130.5C 160.833,130.167 160.167,129.833 159.5,129.5C 160.63,128.378 161.297,127.044 161.5,125.5 Z"/></g>
<g><path style="opacity:1" fill="#1cae98" d="M 74.5,125.5 C 78.5138,125.334 82.5138,125.501 86.5,126C 87,126.5 87.5,127 88,127.5C 88.4988,131.486 88.6655,135.486 88.5,139.5C 87.5,139.5 86.5,139.5 85.5,139.5C 85.665,136.15 85.4983,132.817 85,129.5C 82.67,127.968 80.67,128.302 79,130.5C 78.502,133.482 78.3354,136.482 78.5,139.5C 77.1667,139.5 75.8333,139.5 74.5,139.5C 74.5,134.833 74.5,130.167 74.5,125.5 Z"/></g>
<g><path style="opacity:1" fill="#7cd1c7" d="M 18.5,127.5 C 17.5151,131.634 17.1818,135.968 17.5,140.5C 15.901,140.768 14.5676,140.434 13.5,139.5C 14.5,139.5 15.5,139.5 16.5,139.5C 16.1744,135.116 16.5078,130.783 17.5,126.5C 18.1067,126.624 18.44,126.957 18.5,127.5 Z"/></g>
<g><path style="opacity:1" fill="#37b5a1" d="M 95.5,125.5 C 100.158,124.514 103.824,125.848 106.5,129.5C 103.167,129.5 99.8333,129.5 96.5,129.5C 94.9934,131.969 95.3268,134.135 97.5,136C 100.179,135.842 102.846,135.342 105.5,134.5C 104.203,139.655 100.87,141.488 95.5,140C 90.189,135.045 90.189,130.212 95.5,125.5 Z"/></g>
<g><path style="opacity:1" fill="#bce5e1" d="M 164.5,133.5 C 165.833,133.5 167.167,133.5 168.5,133.5C 168.616,136.91 166.95,138.244 163.5,137.5C 163.433,136.041 163.766,134.708 164.5,133.5 Z"/></g>
<g><path style="opacity:1" fill="#23b19a" d="M 41.5,118.5 C 42.8333,118.5 44.1667,118.5 45.5,118.5C 45.3345,122.514 45.5012,126.514 46,130.5C 47.7266,126.749 50.5599,125.249 54.5,126C 53.0632,128.217 51.3965,130.217 49.5,132C 51.3642,134.029 53.0308,136.195 54.5,138.5C 53.277,139.614 51.9437,139.781 50.5,139C 46.8224,132.019 45.1558,132.185 45.5,139.5C 44.1667,139.5 42.8333,139.5 41.5,139.5C 41.5,132.5 41.5,125.5 41.5,118.5 Z"/></g>
<g><path style="opacity:1" fill="#29b19c" d="M 109.5,125.5 C 112.5,125.5 115.5,125.5 118.5,125.5C 118.5,126.833 118.5,128.167 118.5,129.5C 116.856,129.286 115.356,129.62 114,130.5C 113.502,133.482 113.335,136.482 113.5,139.5C 112.167,139.5 110.833,139.5 109.5,139.5C 109.5,134.833 109.5,130.167 109.5,125.5 Z"/></g>
<g><path style="opacity:1" fill="#2ab19d" d="M 125.5,119.5 C 131.842,118.018 136.508,120.018 139.5,125.5C 137.034,126.881 135.034,126.381 133.5,124C 131.167,123.333 128.833,123.333 126.5,124C 123.952,127.742 123.952,131.575 126.5,135.5C 127.607,136.022 128.774,136.355 130,136.5C 132.755,135.237 135.588,134.237 138.5,133.5C 137.031,139.07 133.365,141.237 127.5,140C 122.688,138.067 120.354,134.401 120.5,129C 120.761,124.973 122.427,121.807 125.5,119.5 Z"/></g>
<g><path style="opacity:1" fill="#bed0d1" d="M 128.5,143.5 C 129.434,144.568 129.768,145.901 129.5,147.5C 132.33,147.694 134.996,148.361 137.5,149.5C 137.662,151.527 137.495,153.527 137,155.5C 136.781,154.062 136.281,152.729 135.5,151.5C 134.833,153.167 134.167,154.833 133.5,156.5C 132.813,154.726 131.98,153.059 131,151.5C 131.046,153.313 130.88,154.979 130.5,156.5C 129.522,156.023 128.689,155.357 128,154.5C 127.667,154.833 127.333,155.167 127,155.5C 126.091,150.27 124.925,150.27 123.5,155.5C 122.522,155.023 121.689,154.357 121,153.5C 120.29,154.973 119.124,155.64 117.5,155.5C 116.769,153.401 116.769,151.401 117.5,149.5C 118.251,150.376 118.751,151.376 119,152.5C 120.512,150.043 121.846,150.043 123,152.5C 123.71,151.027 124.876,150.36 126.5,150.5C 126.878,148.079 127.545,145.746 128.5,143.5 Z"/></g>
<g><path style="opacity:1" fill="#a5b7b8" d="M 98.5,147.5 C 99.6697,149.279 101.336,150.279 103.5,150.5C 103.238,151.978 103.571,153.311 104.5,154.5C 105.59,153.273 106.924,152.44 108.5,152C 107.376,151.751 106.376,151.251 105.5,150.5C 107.714,149.959 109.88,149.626 112,149.5C 112.667,151.5 112.667,153.5 112,155.5C 111,150.167 110,150.167 109,155.5C 108.692,154.692 108.192,154.025 107.5,153.5C 106.158,155.005 104.492,155.672 102.5,155.5C 102.5,154.167 102.5,152.833 102.5,151.5C 101.5,151.5 100.5,151.5 99.5,151.5C 99.6567,152.873 99.49,154.207 99,155.5C 98.5026,152.854 98.3359,150.187 98.5,147.5 Z"/></g>
<g><path style="opacity:1" fill="#b6c8c8" d="M 73.5,148.5 C 75.451,148.227 76.951,148.893 78,150.5C 80.0748,149.105 81.9081,149.438 83.5,151.5C 89.3055,146.716 90.9722,148.05 88.5,155.5C 87.4104,154.609 87.4104,153.609 88.5,152.5C 87.675,151.614 86.675,151.281 85.5,151.5C 85.33,152.822 85.6634,153.989 86.5,155C 82.5004,156.237 78.5004,156.737 74.5,156.5C 74.6534,150.676 73.9867,150.343 72.5,155.5C 71.8333,154.167 71.1667,152.833 70.5,151.5C 69.0285,160.766 67.8618,160.766 67,151.5C 65.7021,158.524 64.2021,158.857 62.5,152.5C 61.675,151.614 60.675,151.281 59.5,151.5C 59.6567,152.873 59.49,154.207 59,155.5C 58.5045,153.527 58.3379,151.527 58.5,149.5C 60.1667,149.5 61.8333,149.5 63.5,149.5C 63.3505,150.552 63.5172,151.552 64,152.5C 66.453,149.515 69.453,148.848 73,150.5C 73.4643,149.906 73.631,149.239 73.5,148.5 Z"/></g>
<g><path style="opacity:1" fill="#a6b8ba" d="M 40.5,148.5 C 41.8734,148.343 43.2068,148.51 44.5,149C 41.8333,150 41.8333,151 44.5,152C 43.6919,152.308 43.0253,152.808 42.5,153.5C 43.8114,154.258 44.3114,155.258 44,156.5C 42.9887,155.663 41.8221,155.33 40.5,155.5C 40.5,153.167 40.5,150.833 40.5,148.5 Z"/></g>
<g><path style="opacity:1" fill="#aec1c1" d="M 148.5,147.5 C 151.874,147.674 155.207,148.174 158.5,149C 156.008,150.249 156.175,151.416 159,152.5C 159.362,156.496 157.862,157.329 154.5,155C 155.624,154.751 156.624,154.251 157.5,153.5C 155.826,152.12 154.16,150.787 152.5,149.5C 149.972,150.169 149.972,151.002 152.5,152C 151.692,152.308 151.025,152.808 150.5,153.5C 151.811,154.258 152.311,155.258 152,156.5C 149.316,155.932 146.816,154.932 144.5,153.5C 143.201,154.09 142.368,155.09 142,156.5C 141.748,154.069 142.248,151.735 143.5,149.5C 144.325,148.614 145.325,148.281 146.5,148.5C 147.947,156.333 148.613,156 148.5,147.5 Z"/></g>
</svg>
