<?xml version="1.0" encoding="UTF-8"?>
<!DOCTYPE svg PUBLIC "-//W3C//DTD SVG 1.1//EN" "http://www.w3.org/Graphics/SVG/1.1/DTD/svg11.dtd">
<svg xmlns="http://www.w3.org/2000/svg" version="1.1" width="1000px" height="750px" style="shape-rendering:geometricPrecision; text-rendering:geometricPrecision; image-rendering:optimizeQuality; fill-rule:evenodd; clip-rule:evenodd" xmlns:xlink="http://www.w3.org/1999/xlink">
<g><path style="opacity:1" fill="#1fbbd7" d="M -0.5,-0.5 C 332.833,-0.5 666.167,-0.5 999.5,-0.5C 999.5,249.5 999.5,499.5 999.5,749.5C 666.167,749.5 332.833,749.5 -0.5,749.5C -0.5,499.5 -0.5,249.5 -0.5,-0.5 Z"/></g>
<g><path style="opacity:1" fill="#fefefe" d="M 498.5,115.5 C 500.074,115.937 501.241,116.937 502,118.5C 519.5,148.833 537,179.167 554.5,209.5C 517.833,210.833 481.167,210.833 444.5,209.5C 462.955,178.39 480.955,147.057 498.5,115.5 Z"/></g>
<g><path style="opacity:1" fill="#fdfefe" d="M 236.5,295.5 C 241.363,295.181 246.03,295.514 250.5,296.5C 243.192,306.815 235.858,317.149 228.5,327.5C 236.041,340.084 243.708,352.584 251.5,365C 246.467,365.829 241.467,365.662 236.5,364.5C 229.468,353.298 222.635,341.965 216,330.5C 215.5,342.162 215.333,353.829 215.5,365.5C 211.5,365.5 207.5,365.5 203.5,365.5C 203.5,329.5 203.5,293.5 203.5,257.5C 207.5,257.5 211.5,257.5 215.5,257.5C 215.333,280.502 215.5,303.502 216,326.5C 222.844,316.138 229.677,305.805 236.5,295.5 Z"/></g>
<g><path style="opacity:1" fill="#fcfefe" d="M 760.5,257.5 C 760.333,272.504 760.5,287.504 761,302.5C 761.717,301.956 762.217,301.289 762.5,300.5C 773.997,290.904 785.164,291.238 796,301.5C 799.127,306.419 801.127,311.752 802,317.5C 802.5,333.497 802.667,349.497 802.5,365.5C 798.167,365.5 793.833,365.5 789.5,365.5C 789.667,349.163 789.5,332.83 789,316.5C 785.844,305.674 779.01,302.507 768.5,307C 765.333,308.833 762.833,311.333 761,314.5C 760.5,331.497 760.333,348.497 760.5,365.5C 756.5,365.5 752.5,365.5 748.5,365.5C 748.5,329.5 748.5,293.5 748.5,257.5C 752.5,257.5 756.5,257.5 760.5,257.5 Z"/></g>
<g><path style="opacity:1" fill="#87dae9" d="M 760.5,257.5 C 761.167,271.833 761.833,286.167 762.5,300.5C 762.217,301.289 761.717,301.956 761,302.5C 760.5,287.504 760.333,272.504 760.5,257.5 Z"/></g>
<g><path style="opacity:1" fill="#fcfefe" d="M 706.5,262.5 C 716.118,261.891 725.451,263.224 734.5,266.5C 735.491,270.445 735.824,274.445 735.5,278.5C 708.681,268.492 691.514,277.159 684,304.5C 681.807,318.871 684.474,332.204 692,344.5C 701.359,354.617 712.859,358.117 726.5,355C 729.208,353.931 731.875,352.764 734.5,351.5C 735.662,355.459 736.162,359.459 736,363.5C 716.04,371.404 698.04,368.404 682,354.5C 670.63,339.001 666.63,321.668 670,302.5C 673.735,281.273 685.902,267.939 706.5,262.5 Z"/></g>
<g><path style="opacity:1" fill="#dbf3f8" d="M 263.5,265.5 C 281.326,264.503 299.326,264.17 317.5,264.5C 317.817,268.702 317.483,272.702 316.5,276.5C 316.5,272.833 316.5,269.167 316.5,265.5C 298.833,265.5 281.167,265.5 263.5,265.5 Z"/></g>
<g><path style="opacity:1" fill="#fcfefe" d="M 141.5,336.5 C 141.783,337.289 142.283,337.956 143,338.5C 143.5,313.836 143.667,289.169 143.5,264.5C 147.833,264.5 152.167,264.5 156.5,264.5C 156.5,298.167 156.5,331.833 156.5,365.5C 152.116,365.826 147.783,365.492 143.5,364.5C 129.3,339.431 115.633,314.098 102.5,288.5C 102.44,287.957 102.107,287.624 101.5,287.5C 100.5,313.491 100.167,339.491 100.5,365.5C 96.5,365.5 92.5,365.5 88.5,365.5C 88.5,331.833 88.5,298.167 88.5,264.5C 93.544,264.173 98.544,264.506 103.5,265.5C 116.446,289.062 129.113,312.728 141.5,336.5 Z"/></g>
<g><path style="opacity:1" fill="#7cd7e7" d="M 143.5,264.5 C 143.667,289.169 143.5,313.836 143,338.5C 142.283,337.956 141.783,337.289 141.5,336.5C 142.167,312.5 142.833,288.5 143.5,264.5 Z"/></g>
<g><path style="opacity:1" fill="#fdfefe" d="M 173.5,264.5 C 177.5,264.5 181.5,264.5 185.5,264.5C 185.5,269.167 185.5,273.833 185.5,278.5C 181.5,278.5 177.5,278.5 173.5,278.5C 173.5,273.833 173.5,269.167 173.5,264.5 Z"/></g>
<g><path style="opacity:1" fill="#fbfdfe" d="M 263.5,265.5 C 281.167,265.5 298.833,265.5 316.5,265.5C 316.5,269.167 316.5,272.833 316.5,276.5C 303.167,276.5 289.833,276.5 276.5,276.5C 276.5,286.5 276.5,296.5 276.5,306.5C 287.167,306.5 297.833,306.5 308.5,306.5C 308.5,310.5 308.5,314.5 308.5,318.5C 297.833,318.5 287.167,318.5 276.5,318.5C 276.5,330.167 276.5,341.833 276.5,353.5C 290.5,353.5 304.5,353.5 318.5,353.5C 318.5,357.5 318.5,361.5 318.5,365.5C 300.167,365.5 281.833,365.5 263.5,365.5C 263.5,332.167 263.5,298.833 263.5,265.5 Z"/></g>
<g><path style="opacity:1" fill="#fcfefe" d="M 662.5,304.5 C 657.167,304.5 651.833,304.5 646.5,304.5C 646.171,319.343 646.504,334.01 647.5,348.5C 647.747,353.076 650.081,355.743 654.5,356.5C 657.159,356.917 659.492,357.917 661.5,359.5C 661.5,361.167 661.5,362.833 661.5,364.5C 656.807,366.36 651.807,367.026 646.5,366.5C 640.184,365.015 636.351,361.015 635,354.5C 634.5,338.17 634.333,321.837 634.5,305.5C 631.713,304.523 628.713,304.19 625.5,304.5C 625.5,303.5 625.5,302.5 625.5,301.5C 625.5,299.5 625.5,297.5 625.5,295.5C 628.5,295.5 631.5,295.5 634.5,295.5C 634.5,289.5 634.5,283.5 634.5,277.5C 638.842,277.261 643.176,276.927 647.5,276.5C 647.5,282.833 647.5,289.167 647.5,295.5C 652.5,295.5 657.5,295.5 662.5,295.5C 662.5,298.5 662.5,301.5 662.5,304.5 Z"/></g>
<g><path style="opacity:1" fill="#fdfefe" d="M 883.5,354.5 C 883.5,337.833 883.5,321.167 883.5,304.5C 880.167,304.5 876.833,304.5 873.5,304.5C 873.704,301.482 874.037,298.482 874.5,295.5C 877.448,295.777 880.281,295.444 883,294.5C 883.499,288.843 883.666,283.176 883.5,277.5C 887.452,276.728 891.452,276.395 895.5,276.5C 895.5,282.833 895.5,289.167 895.5,295.5C 900.5,295.5 905.5,295.5 910.5,295.5C 910.5,298.5 910.5,301.5 910.5,304.5C 905.5,304.5 900.5,304.5 895.5,304.5C 895.333,320.17 895.5,335.837 896,351.5C 897.251,354.381 899.417,356.214 902.5,357C 905.226,357.182 907.893,357.682 910.5,358.5C 909.593,361.421 909.26,364.421 909.5,367.5C 904.489,367.666 899.489,367.499 894.5,367C 888.159,365.132 884.492,360.965 883.5,354.5 Z"/></g>
<g><path style="opacity:1" fill="#d6f2f7" d="M 102.5,288.5 C 101.833,314.167 101.167,339.833 100.5,365.5C 100.167,339.491 100.5,313.491 101.5,287.5C 102.107,287.624 102.44,287.957 102.5,288.5 Z"/></g>
<g><path style="opacity:1" fill="#95deeb" d="M 236.5,295.5 C 241.348,294.186 246.348,294.186 251.5,295.5C 251.376,296.107 251.043,296.44 250.5,296.5C 246.03,295.514 241.363,295.181 236.5,295.5 Z"/></g>
<g><path style="opacity:1" fill="#fdfefe" d="M 354.5,293.5 C 369.47,292.232 378.637,298.898 382,313.5C 382.5,330.83 382.667,348.163 382.5,365.5C 378.5,365.5 374.5,365.5 370.5,365.5C 370.667,349.497 370.5,333.497 370,317.5C 366.475,304.819 358.975,301.652 347.5,308C 345.291,309.873 343.458,312.04 342,314.5C 341.5,331.497 341.333,348.497 341.5,365.5C 337.5,365.5 333.5,365.5 329.5,365.5C 329.5,342.167 329.5,318.833 329.5,295.5C 333.167,295.5 336.833,295.5 340.5,295.5C 340.336,298.187 340.503,300.854 341,303.5C 344.555,298.763 349.055,295.43 354.5,293.5 Z"/></g>
<g><path style="opacity:1" fill="#fcfefe" d="M 419.5,293.5 C 427.026,293.206 434.36,294.206 441.5,296.5C 441.379,300.456 440.379,304.122 438.5,307.5C 417.738,300.554 406.738,308.054 405.5,330C 407.126,352.793 418.792,360.626 440.5,353.5C 440.942,357.154 441.276,360.821 441.5,364.5C 429.431,369.093 417.764,368.259 406.5,362C 394.929,350.539 390.763,336.705 394,320.5C 396.911,306.092 405.411,297.092 419.5,293.5 Z"/></g>
<g><path style="opacity:1" fill="#fdfefe" d="M 479.5,293.5 C 481.833,293.5 484.167,293.5 486.5,293.5C 485.771,298.13 485.437,302.797 485.5,307.5C 477.585,306.707 471.085,309.374 466,315.5C 465.5,332.163 465.333,348.83 465.5,365.5C 461.5,365.5 457.5,365.5 453.5,365.5C 453.5,342.167 453.5,318.833 453.5,295.5C 456.898,295.18 460.232,295.513 463.5,296.5C 464.094,299.83 464.76,303.164 465.5,306.5C 468.932,300.731 473.599,296.397 479.5,293.5 Z"/></g>
<g><path style="opacity:1" fill="#95deeb" d="M 538.5,295.5 C 542.683,294.189 547.016,294.189 551.5,295.5C 551.376,296.107 551.043,296.44 550.5,296.5C 546.702,295.517 542.702,295.183 538.5,295.5 Z"/></g>
<g><path style="opacity:1" fill="#fdfefe" d="M 586.5,293.5 C 603.567,293.387 614.067,301.72 618,318.5C 620.208,331.906 618.208,344.573 612,356.5C 599.814,369.709 586.814,370.709 573,359.5C 572.5,373.163 572.333,386.829 572.5,400.5C 568.5,400.5 564.5,400.5 560.5,400.5C 560.5,365.5 560.5,330.5 560.5,295.5C 563.833,295.5 567.167,295.5 570.5,295.5C 570.336,298.187 570.503,300.854 571,303.5C 575.205,298.492 580.372,295.159 586.5,293.5 Z"/></g>
<g><path style="opacity:1" fill="#fcfefe" d="M 831.5,293.5 C 836.899,293.309 842.233,293.809 847.5,295C 854.479,297.319 858.646,302.152 860,309.5C 860.109,323.873 860.776,338.207 862,352.5C 862.727,355.955 864.893,357.621 868.5,357.5C 867.793,360.786 867.46,364.119 867.5,367.5C 859.17,368.335 853.17,365.002 849.5,357.5C 843.402,364.551 835.735,367.718 826.5,367C 815.312,362.126 810.812,353.626 813,341.5C 815.542,331.961 821.708,326.128 831.5,324C 837.056,322.36 842.722,321.527 848.5,321.5C 849.163,306.991 842.497,301.824 828.5,306C 825.671,307.247 823.005,308.747 820.5,310.5C 818.438,307.001 818.105,303.335 819.5,299.5C 823.481,297.295 827.481,295.295 831.5,293.5 Z"/></g>
<g><path style="opacity:1" fill="#fefffe" d="M 173.5,295.5 C 177.5,295.5 181.5,295.5 185.5,295.5C 185.5,318.833 185.5,342.167 185.5,365.5C 181.5,365.5 177.5,365.5 173.5,365.5C 173.5,342.167 173.5,318.833 173.5,295.5 Z"/></g>
<g><path style="opacity:1" fill="#fcfefe" d="M 538.5,295.5 C 542.702,295.183 546.702,295.517 550.5,296.5C 538.439,330.514 526.272,364.514 514,398.5C 511.959,399.752 509.625,400.419 507,400.5C 504.833,400.167 502.667,399.833 500.5,399.5C 505.167,387.167 509.833,374.833 514.5,362.5C 505.927,340.277 497.26,318.11 488.5,296C 493.155,295.501 497.821,295.334 502.5,295.5C 508.173,313.021 514.34,330.354 521,347.5C 526.368,329.895 532.201,312.562 538.5,295.5 Z"/></g>
<g><path style="opacity:1" fill="#89dae9" d="M 625.5,301.5 C 625.5,302.5 625.5,303.5 625.5,304.5C 628.713,304.19 631.713,304.523 634.5,305.5C 631.167,305.5 627.833,305.5 624.5,305.5C 624.232,303.901 624.566,302.568 625.5,301.5 Z"/></g>
<g><path style="opacity:1" fill="#26bcd7" d="M 585.5,304.5 C 595.654,304.154 602.154,308.821 605,318.5C 607.82,329.695 606.487,340.361 601,350.5C 587.105,360.201 577.438,356.867 572,340.5C 571.104,332.754 571.437,325.087 573,317.5C 575.379,311.29 579.546,306.957 585.5,304.5 Z"/></g>
<g><path style="opacity:1" fill="#a2e2ee" d="M 662.5,304.5 C 657.695,305.487 652.695,305.821 647.5,305.5C 647.5,319.833 647.5,334.167 647.5,348.5C 646.504,334.01 646.171,319.343 646.5,304.5C 651.833,304.5 657.167,304.5 662.5,304.5 Z"/></g>
<g><path style="opacity:1" fill="#97deec" d="M 873.5,304.5 C 876.833,304.5 880.167,304.5 883.5,304.5C 883.5,321.167 883.5,337.833 883.5,354.5C 882.504,338.342 882.17,322.009 882.5,305.5C 879.287,305.81 876.287,305.477 873.5,304.5 Z"/></g>
<g><path style="opacity:1" fill="#2bbdd8" d="M 840.5,330.5 C 843.167,330.5 845.833,330.5 848.5,330.5C 852.449,344.276 847.783,353.276 834.5,357.5C 826.221,355.284 823.388,349.951 826,341.5C 826.883,338.898 828.383,336.731 830.5,335C 833.815,333.17 837.149,331.67 840.5,330.5 Z"/></g>
<g><path style="opacity:1" fill="#9ae0ec" d="M 654.5,356.5 C 657.167,356.5 659.833,356.5 662.5,356.5C 662.737,357.791 662.404,358.791 661.5,359.5C 659.492,357.917 657.159,356.917 654.5,356.5 Z"/></g>
<g><path style="opacity:1" fill="#bdeaf2" d="M 661.5,364.5 C 661.5,365.5 661.5,366.5 661.5,367.5C 656.305,367.821 651.305,367.487 646.5,366.5C 651.807,367.026 656.807,366.36 661.5,364.5 Z"/></g>
<g><path style="opacity:1" fill="#fdfefe" d="M 131.5,434.5 C 133.833,434.5 136.167,434.5 138.5,434.5C 138.5,449.167 138.5,463.833 138.5,478.5C 136.167,478.5 133.833,478.5 131.5,478.5C 131.5,463.833 131.5,449.167 131.5,434.5 Z"/></g>
<g><path style="opacity:1" fill="#fafdfe" d="M 581.5,447.5 C 581.5,449.833 581.5,452.167 581.5,454.5C 576.637,454.181 571.97,454.514 567.5,455.5C 566.883,455.611 566.383,455.944 566,456.5C 565.201,461.087 565.368,465.587 566.5,470C 572.749,470.809 578.916,470.642 585,469.5C 585.5,457.838 585.667,446.171 585.5,434.5C 587.833,434.5 590.167,434.5 592.5,434.5C 592.943,447.574 592.443,460.574 591,473.5C 586.387,477.854 580.887,479.521 574.5,478.5C 562.855,479.521 557.521,474.188 558.5,462.5C 557.234,455.867 559.567,451.034 565.5,448C 570.823,447.501 576.156,447.334 581.5,447.5 Z"/></g>
<g><path style="opacity:1" fill="#f6fcfd" d="M 671.5,434.5 C 673.833,434.5 676.167,434.5 678.5,434.5C 678.5,436.833 678.5,439.167 678.5,441.5C 676.167,441.5 673.833,441.5 671.5,441.5C 671.5,439.167 671.5,436.833 671.5,434.5 Z"/></g>
<g><path style="opacity:1" fill="#c3ecf3" d="M 718.5,434.5 C 721.167,434.5 723.833,434.5 726.5,434.5C 726.5,449.167 726.5,463.833 726.5,478.5C 723.833,478.5 721.167,478.5 718.5,478.5C 718.5,463.833 718.5,449.167 718.5,434.5 Z"/></g>
<g><path style="opacity:1" fill="#fefffe" d="M 719.5,435.5 C 721.5,435.5 723.5,435.5 725.5,435.5C 725.5,449.5 725.5,463.5 725.5,477.5C 723.5,477.5 721.5,477.5 719.5,477.5C 719.5,463.5 719.5,449.5 719.5,435.5 Z"/></g>
<g><path style="opacity:1" fill="#fdfefe" d="M 124.5,437.5 C 124.5,439.833 124.5,442.167 124.5,444.5C 115.318,444.173 106.318,444.507 97.5,445.5C 96.8826,445.611 96.3826,445.944 96,446.5C 95.3333,454.167 95.3333,461.833 96,469.5C 96.3826,470.056 96.8826,470.389 97.5,470.5C 106.318,471.493 115.318,471.827 124.5,471.5C 124.5,473.5 124.5,475.5 124.5,477.5C 114.833,477.5 105.167,477.5 95.5,477.5C 92.2467,476.749 90.08,474.749 89,471.5C 88.3333,462.167 88.3333,452.833 89,443.5C 90.1667,441 92,439.167 94.5,438C 104.494,437.5 114.494,437.334 124.5,437.5 Z"/></g>
<g><path style="opacity:1" fill="#fdfefe" d="M 237.5,454.5 C 233.167,454.5 228.833,454.5 224.5,454.5C 224.5,462.167 224.5,469.833 224.5,477.5C 222.5,477.5 220.5,477.5 218.5,477.5C 218.825,469.648 218.492,461.982 217.5,454.5C 214.5,454.5 211.5,454.5 208.5,454.5C 208.5,452.167 208.5,449.833 208.5,447.5C 211.5,447.5 214.5,447.5 217.5,447.5C 217.5,444.167 217.5,440.833 217.5,437.5C 219.833,437.5 222.167,437.5 224.5,437.5C 224.5,440.833 224.5,444.167 224.5,447.5C 228.833,447.5 233.167,447.5 237.5,447.5C 237.5,449.833 237.5,452.167 237.5,454.5 Z"/></g>
<g><path style="opacity:1" fill="#fbfdfe" d="M 515.5,454.5 C 511.167,454.5 506.833,454.5 502.5,454.5C 502.5,462.167 502.5,469.833 502.5,477.5C 500.5,477.5 498.5,477.5 496.5,477.5C 496.825,469.648 496.492,461.982 495.5,454.5C 492.5,454.5 489.5,454.5 486.5,454.5C 486.5,452.167 486.5,449.833 486.5,447.5C 489.5,447.5 492.5,447.5 495.5,447.5C 495.5,444.167 495.5,440.833 495.5,437.5C 498.167,437.5 500.833,437.5 503.5,437.5C 503.5,440.833 503.5,444.167 503.5,447.5C 507.5,447.5 511.5,447.5 515.5,447.5C 515.5,449.833 515.5,452.167 515.5,454.5 Z"/></g>
<g><path style="opacity:1" fill="#fbfdfe" d="M 713.5,454.5 C 709.167,454.5 704.833,454.5 700.5,454.5C 700.5,462.5 700.5,470.5 700.5,478.5C 698.167,478.5 695.833,478.5 693.5,478.5C 693.5,470.5 693.5,462.5 693.5,454.5C 690.5,454.5 687.5,454.5 684.5,454.5C 684.5,452.167 684.5,449.833 684.5,447.5C 687.5,447.5 690.5,447.5 693.5,447.5C 693.5,444.167 693.5,440.833 693.5,437.5C 695.833,437.5 698.167,437.5 700.5,437.5C 700.5,440.833 700.5,444.167 700.5,447.5C 704.833,447.5 709.167,447.5 713.5,447.5C 713.5,449.833 713.5,452.167 713.5,454.5 Z"/></g>
<g><path style="opacity:1" fill="#fcfefe" d="M 818.5,439.5 C 818.5,452.167 818.5,464.833 818.5,477.5C 816.5,477.5 814.5,477.5 812.5,477.5C 812.5,474.5 812.5,471.5 812.5,468.5C 803.833,468.5 795.167,468.5 786.5,468.5C 785.523,471.287 785.19,474.287 785.5,477.5C 783.5,477.5 781.5,477.5 779.5,477.5C 779.5,469.167 779.5,460.833 779.5,452.5C 781.25,444.916 785.917,440.082 793.5,438C 801.5,437.333 809.5,437.333 817.5,438C 818.056,438.383 818.389,438.883 818.5,439.5 Z"/></g>
<g><path style="opacity:1" fill="#f6fcfd" d="M 864.5,444.5 C 854.5,444.5 844.5,444.5 834.5,444.5C 834.174,453.017 834.507,461.35 835.5,469.5C 844.986,470.494 854.652,470.827 864.5,470.5C 864.5,473.167 864.5,475.833 864.5,478.5C 854.828,478.666 845.161,478.5 835.5,478C 831.667,476.833 829.167,474.333 828,470.5C 827.333,460.167 827.333,449.833 828,439.5C 828.5,439 829,438.5 829.5,438C 841.162,437.5 852.829,437.333 864.5,437.5C 864.5,439.833 864.5,442.167 864.5,444.5 Z"/></g>
<g><path style="opacity:1" fill="#f8fcfd" d="M 906.5,437.5 C 906.5,439.833 906.5,442.167 906.5,444.5C 897.651,444.174 888.984,444.507 880.5,445.5C 878.414,446.148 877.414,447.648 877.5,450C 877.439,451.711 878.106,453.044 879.5,454C 887.167,454.333 894.833,454.667 902.5,455C 909.666,457.834 912.166,463.001 910,470.5C 908.514,474.498 905.68,476.998 901.5,478C 891.172,478.5 880.839,478.666 870.5,478.5C 870.5,475.833 870.5,473.167 870.5,470.5C 880.839,470.666 891.172,470.5 901.5,470C 904.167,467.333 904.167,464.667 901.5,462C 893.5,461.667 885.5,461.333 877.5,461C 871.24,457.235 869.073,451.735 871,444.5C 872.563,441.272 875.063,439.105 878.5,438C 887.827,437.5 897.161,437.334 906.5,437.5 Z"/></g>
<g><path style="opacity:1" fill="#def4f8" d="M 818.5,439.5 C 819.495,452.323 819.829,465.323 819.5,478.5C 816.941,478.802 814.607,478.468 812.5,477.5C 814.5,477.5 816.5,477.5 818.5,477.5C 818.5,464.833 818.5,452.167 818.5,439.5 Z"/></g>
<g><path style="opacity:1" fill="#8ddbea" d="M 124.5,437.5 C 125.473,439.948 125.806,442.615 125.5,445.5C 116.167,445.5 106.833,445.5 97.5,445.5C 106.318,444.507 115.318,444.173 124.5,444.5C 124.5,442.167 124.5,439.833 124.5,437.5 Z"/></g>
<g><path style="opacity:1" fill="#96deeb" d="M 864.5,444.5 C 855.014,445.494 845.348,445.827 835.5,445.5C 835.5,453.5 835.5,461.5 835.5,469.5C 834.507,461.35 834.174,453.017 834.5,444.5C 844.5,444.5 854.5,444.5 864.5,444.5 Z"/></g>
<g><path style="opacity:1" fill="#8cdbe9" d="M 906.5,437.5 C 907.473,439.948 907.806,442.615 907.5,445.5C 898.5,445.5 889.5,445.5 880.5,445.5C 888.984,444.507 897.651,444.174 906.5,444.5C 906.5,442.167 906.5,439.833 906.5,437.5 Z"/></g>
<g><path style="opacity:1" fill="#24bbd7" d="M 796.5,445.5 C 801.5,445.5 806.5,445.5 811.5,445.5C 811.5,450.5 811.5,455.5 811.5,460.5C 803.167,460.5 794.833,460.5 786.5,460.5C 785.007,452.522 788.341,447.522 796.5,445.5 Z"/></g>
<g><path style="opacity:1" fill="#97deec" d="M 796.5,445.5 C 801.64,444.512 806.974,444.179 812.5,444.5C 812.5,450.167 812.5,455.833 812.5,461.5C 803.651,461.826 794.984,461.493 786.5,460.5C 794.833,460.5 803.167,460.5 811.5,460.5C 811.5,455.5 811.5,450.5 811.5,445.5C 806.5,445.5 801.5,445.5 796.5,445.5 Z"/></g>
<g><path style="opacity:1" fill="#fbfdfe" d="M 142.5,447.5 C 147.511,447.334 152.511,447.501 157.5,448C 160.196,448.69 162.363,450.19 164,452.5C 165.441,461.058 165.941,469.724 165.5,478.5C 163.167,478.5 160.833,478.5 158.5,478.5C 158.666,471.159 158.5,463.826 158,456.5C 157.617,455.944 157.117,455.611 156.5,455.5C 152.03,454.514 147.363,454.181 142.5,454.5C 142.5,452.167 142.5,449.833 142.5,447.5 Z"/></g>
<g><path style="opacity:1" fill="#fafdfe" d="M 177.5,447.5 C 183.509,447.334 189.509,447.501 195.5,448C 199.02,448.504 201.52,450.337 203,453.5C 203.667,459.5 203.667,465.5 203,471.5C 202.167,475 200,477.167 196.5,478C 189.392,478.924 182.392,478.591 175.5,477C 168.844,471.047 168.844,465.047 175.5,459C 181.491,458.501 187.491,458.334 193.5,458.5C 193.5,460.5 193.5,462.5 193.5,464.5C 188.821,464.334 184.155,464.501 179.5,465C 177.302,466.67 176.968,468.67 178.5,471C 184.167,471.667 189.833,471.667 195.5,471C 196.833,465.667 196.833,460.333 195.5,455C 189.509,454.501 183.509,454.334 177.5,454.5C 177.5,452.167 177.5,449.833 177.5,447.5 Z"/></g>
<g><path style="opacity:1" fill="#fafdfe" d="M 285.5,467.5 C 280.833,467.5 276.167,467.5 271.5,467.5C 271.5,465.5 271.5,463.5 271.5,461.5C 276.363,461.819 281.03,461.486 285.5,460.5C 288.124,458.802 288.124,456.969 285.5,455C 280.167,454.333 274.833,454.333 269.5,455C 269,455.5 268.5,456 268,456.5C 267.333,460.833 267.333,465.167 268,469.5C 268.5,470 269,470.5 269.5,471C 274.155,471.499 278.821,471.666 283.5,471.5C 283.5,473.5 283.5,475.5 283.5,477.5C 278.167,477.5 272.833,477.5 267.5,477.5C 264.572,476.409 262.406,474.409 261,471.5C 260.333,465.833 260.333,460.167 261,454.5C 264.314,448.262 269.481,445.929 276.5,447.5C 280.902,447.485 285.235,447.985 289.5,449C 295.792,454.257 296.125,459.923 290.5,466C 288.975,467.009 287.308,467.509 285.5,467.5 Z"/></g>
<g><path style="opacity:1" fill="#fdfefe" d="M 332.5,457.5 C 332.5,464.167 332.5,470.833 332.5,477.5C 330.5,477.5 328.5,477.5 326.5,477.5C 326.823,471.31 326.49,465.31 325.5,459.5C 325.084,457.248 323.751,455.748 321.5,455C 316.511,454.501 311.511,454.334 306.5,454.5C 306.5,462.5 306.5,470.5 306.5,478.5C 304.167,478.5 301.833,478.5 299.5,478.5C 299.334,468.828 299.5,459.161 300,449.5C 300.5,449 301,448.5 301.5,448C 308.5,447.333 315.5,447.333 322.5,448C 327.648,449.316 330.982,452.483 332.5,457.5 Z"/></g>
<g><path style="opacity:1" fill="#f7fcfd" d="M 345.5,447.5 C 353.5,447.5 361.5,447.5 369.5,447.5C 369.5,449.833 369.5,452.167 369.5,454.5C 362.492,454.334 355.492,454.5 348.5,455C 347.24,457.213 346.574,459.713 346.5,462.5C 346.527,465.089 346.861,467.589 347.5,470C 354.826,470.5 362.159,470.666 369.5,470.5C 369.5,473.167 369.5,475.833 369.5,478.5C 361.826,478.666 354.159,478.5 346.5,478C 343.417,477.214 341.251,475.381 340,472.5C 339.333,466.167 339.333,459.833 340,453.5C 341.36,450.977 343.193,448.977 345.5,447.5 Z"/></g>
<g><path style="opacity:1" fill="#fbfefe" d="M 382.5,447.5 C 389.167,447.5 395.833,447.5 402.5,447.5C 402.5,449.833 402.5,452.167 402.5,454.5C 396.491,454.334 390.491,454.501 384.5,455C 384,455.5 383.5,456 383,456.5C 382.5,463.826 382.334,471.159 382.5,478.5C 380.167,478.5 377.833,478.5 375.5,478.5C 375.334,470.493 375.5,462.493 376,454.5C 377.425,451.394 379.592,449.06 382.5,447.5 Z"/></g>
<g><path style="opacity:1" fill="#fbfdfe" d="M 416.5,470.5 C 420.97,471.486 425.637,471.819 430.5,471.5C 430.5,473.833 430.5,476.167 430.5,478.5C 425.156,478.666 419.823,478.499 414.5,478C 411.417,477.214 409.251,475.381 408,472.5C 407.5,464.173 407.334,455.84 407.5,447.5C 409.833,447.5 412.167,447.5 414.5,447.5C 414.334,454.841 414.5,462.174 415,469.5C 415.383,470.056 415.883,470.389 416.5,470.5 Z"/></g>
<g><path style="opacity:1" fill="#f4fbfc" d="M 433.5,447.5 C 436.167,447.5 438.833,447.5 441.5,447.5C 441.667,459.505 441.5,471.505 441,483.5C 439.807,487.36 437.307,489.86 433.5,491C 428.177,491.499 422.844,491.666 417.5,491.5C 417.5,489.167 417.5,486.833 417.5,484.5C 422.762,484.805 427.928,484.471 433,483.5C 433.5,471.505 433.667,459.505 433.5,447.5 Z"/></g>
<g><path style="opacity:1" fill="#f9fdfd" d="M 455.5,447.5 C 461.509,447.334 467.509,447.501 473.5,448C 477.02,448.504 479.52,450.337 481,453.5C 486.569,473.761 479.069,482.094 458.5,478.5C 458.5,475.833 458.5,473.167 458.5,470.5C 463.833,470.5 469.167,470.5 474.5,470.5C 474.805,465.238 474.471,460.072 473.5,455C 467.833,454.333 462.167,454.333 456.5,455C 455.513,465.752 455.18,476.585 455.5,487.5C 453.167,487.5 450.833,487.5 448.5,487.5C 448.333,476.162 448.5,464.828 449,453.5C 450.494,450.686 452.66,448.686 455.5,447.5 Z"/></g>
<g><path style="opacity:1" fill="#f8fcfd" d="M 526.5,447.5 C 532.842,447.334 539.175,447.5 545.5,448C 552.526,449.878 555.026,454.378 553,461.5C 552.215,463.286 551.049,464.786 549.5,466C 543.285,467.416 536.952,467.916 530.5,467.5C 530.5,465.167 530.5,462.833 530.5,460.5C 535.833,460.5 541.167,460.5 546.5,460.5C 546.739,458.533 546.406,456.699 545.5,455C 539.584,454.193 533.75,454.359 528,455.5C 527.333,460.5 527.333,465.5 528,470.5C 533.072,471.471 538.238,471.805 543.5,471.5C 543.5,473.833 543.5,476.167 543.5,478.5C 523.18,481.901 515.68,473.567 521,453.5C 522.36,450.977 524.193,448.977 526.5,447.5 Z"/></g>
<g><path style="opacity:1" fill="#fbfdfe" d="M 618.5,447.5 C 620.833,447.5 623.167,447.5 625.5,447.5C 625.334,453.176 625.501,458.843 626,464.5C 631.514,459.286 636.681,453.786 641.5,448C 643.367,447.289 644.867,447.789 646,449.5C 646.333,455.833 646.667,462.167 647,468.5C 652.479,462.516 656.979,455.85 660.5,448.5C 663.167,447.167 665.833,447.167 668.5,448.5C 664.26,458.565 658.26,467.399 650.5,475C 648.44,476.696 646.107,477.863 643.5,478.5C 641.971,478.471 640.804,477.804 640,476.5C 639.667,471.5 639.333,466.5 639,461.5C 633.949,467.095 628.782,472.595 623.5,478C 621.633,478.711 620.133,478.211 619,476.5C 618.5,466.839 618.334,457.172 618.5,447.5 Z"/></g>
<g><path style="opacity:1" fill="#fafdfe" d="M 671.5,447.5 C 673.833,447.5 676.167,447.5 678.5,447.5C 678.5,457.833 678.5,468.167 678.5,478.5C 676.167,478.5 673.833,478.5 671.5,478.5C 671.5,468.167 671.5,457.833 671.5,447.5 Z"/></g>
<g><path style="opacity:1" fill="#fbfdfe" d="M 729.5,447.5 C 734.844,447.334 740.177,447.501 745.5,448C 747.587,448.792 749.421,449.959 751,451.5C 752.443,460.392 752.943,469.392 752.5,478.5C 750.167,478.5 747.833,478.5 745.5,478.5C 745.831,470.804 745.497,463.138 744.5,455.5C 739.565,454.552 734.565,454.219 729.5,454.5C 729.5,452.167 729.5,449.833 729.5,447.5 Z"/></g>
<g><path style="opacity:1" fill="#94ddeb" d="M 142.5,447.5 C 142.5,449.833 142.5,452.167 142.5,454.5C 147.363,454.181 152.03,454.514 156.5,455.5C 151.5,455.5 146.5,455.5 141.5,455.5C 141.194,452.615 141.527,449.948 142.5,447.5 Z"/></g>
<g><path style="opacity:1" fill="#8ddbea" d="M 581.5,447.5 C 582.473,449.948 582.806,452.615 582.5,455.5C 577.5,455.5 572.5,455.5 567.5,455.5C 571.97,454.514 576.637,454.181 581.5,454.5C 581.5,452.167 581.5,449.833 581.5,447.5 Z"/></g>
<g><path style="opacity:1" fill="#fefefe" d="M 838.5,454.5 C 846.167,454.5 853.833,454.5 861.5,454.5C 861.5,456.833 861.5,459.167 861.5,461.5C 853.833,461.5 846.167,461.5 838.5,461.5C 838.5,459.167 838.5,456.833 838.5,454.5 Z"/></g>
<g><path style="opacity:1" fill="#e0f5f9" d="M 217.5,454.5 C 218.492,461.982 218.825,469.648 218.5,477.5C 220.5,477.5 222.5,477.5 224.5,477.5C 224.5,477.833 224.5,478.167 224.5,478.5C 222.167,478.5 219.833,478.5 217.5,478.5C 217.5,470.5 217.5,462.5 217.5,454.5 Z"/></g>
<g><path style="opacity:1" fill="#9ae0ec" d="M 237.5,454.5 C 233.702,455.483 229.702,455.817 225.5,455.5C 225.825,463.352 225.492,471.018 224.5,478.5C 224.5,478.167 224.5,477.833 224.5,477.5C 224.5,469.833 224.5,462.167 224.5,454.5C 228.833,454.5 233.167,454.5 237.5,454.5 Z"/></g>
<g><path style="opacity:1" fill="#cff0f6" d="M 495.5,454.5 C 496.492,461.982 496.825,469.648 496.5,477.5C 498.5,477.5 500.5,477.5 502.5,477.5C 502.5,477.833 502.5,478.167 502.5,478.5C 500.167,478.5 497.833,478.5 495.5,478.5C 495.5,470.5 495.5,462.5 495.5,454.5 Z"/></g>
<g><path style="opacity:1" fill="#aae4ef" d="M 515.5,454.5 C 511.702,455.483 507.702,455.817 503.5,455.5C 503.825,463.352 503.492,471.018 502.5,478.5C 502.5,478.167 502.5,477.833 502.5,477.5C 502.5,469.833 502.5,462.167 502.5,454.5C 506.833,454.5 511.167,454.5 515.5,454.5 Z"/></g>
<g><path style="opacity:1" fill="#99dfec" d="M 713.5,454.5 C 709.702,455.483 705.702,455.817 701.5,455.5C 701.825,463.352 701.492,471.018 700.5,478.5C 700.5,470.5 700.5,462.5 700.5,454.5C 704.833,454.5 709.167,454.5 713.5,454.5 Z"/></g>
<g><path style="opacity:1" fill="#c7edf4" d="M 779.5,452.5 C 779.5,460.833 779.5,469.167 779.5,477.5C 781.5,477.5 783.5,477.5 785.5,477.5C 785.19,474.287 785.523,471.287 786.5,468.5C 786.5,471.833 786.5,475.167 786.5,478.5C 783.833,478.5 781.167,478.5 778.5,478.5C 778.174,469.651 778.507,460.984 779.5,452.5 Z"/></g>
<g><path style="opacity:1" fill="#9adfec" d="M 285.5,460.5 C 281.03,461.486 276.363,461.819 271.5,461.5C 271.5,463.5 271.5,465.5 271.5,467.5C 276.167,467.5 280.833,467.5 285.5,467.5C 280.695,468.487 275.695,468.821 270.5,468.5C 270.5,465.833 270.5,463.167 270.5,460.5C 275.5,460.5 280.5,460.5 285.5,460.5 Z"/></g>
<g><path style="opacity:1" fill="#b2e7f1" d="M 332.5,457.5 C 333.491,464.313 333.825,471.313 333.5,478.5C 330.833,478.5 328.167,478.5 325.5,478.5C 325.5,472.167 325.5,465.833 325.5,459.5C 326.49,465.31 326.823,471.31 326.5,477.5C 328.5,477.5 330.5,477.5 332.5,477.5C 332.5,470.833 332.5,464.167 332.5,457.5 Z"/></g>
<g><path style="opacity:1" fill="#b2e7f1" d="M 97.5,470.5 C 106.833,470.5 116.167,470.5 125.5,470.5C 125.5,473.167 125.5,475.833 125.5,478.5C 115.319,478.827 105.319,478.494 95.5,477.5C 105.167,477.5 114.833,477.5 124.5,477.5C 124.5,475.5 124.5,473.5 124.5,471.5C 115.318,471.827 106.318,471.493 97.5,470.5 Z"/></g>
<g><path style="opacity:1" fill="#7bd5e6" d="M 416.5,470.5 C 421.5,470.5 426.5,470.5 431.5,470.5C 431.806,473.385 431.473,476.052 430.5,478.5C 430.5,476.167 430.5,473.833 430.5,471.5C 425.637,471.819 420.97,471.486 416.5,470.5 Z"/></g>
<g><path style="opacity:1" fill="#c2ecf3" d="M 283.5,471.5 C 284.468,473.607 284.802,475.941 284.5,478.5C 278.642,478.822 272.975,478.489 267.5,477.5C 272.833,477.5 278.167,477.5 283.5,477.5C 283.5,475.5 283.5,473.5 283.5,471.5 Z"/></g>
<g><path style="opacity:1" fill="#fefefe" d="M 254.5,538.5 C 417.834,538.333 581.167,538.5 744.5,539C 762.833,570.667 781.167,602.333 799.5,634C 599.5,634.667 399.5,634.667 199.5,634C 217.971,602.221 236.305,570.388 254.5,538.5 Z"/></g>
</svg>
